<svg viewBox="0 0 551 568" fill="none" xmlns="http://www.w3.org/2000/svg">
<g clip-path="url(#clip0_1_2)">
<path d="M386.602 567.986H235.877C234.124 567.984 232.445 567.287 231.206 566.048C229.967 564.809 229.27 563.13 229.268 561.377V455.998C229.27 454.246 229.967 452.566 231.206 451.327C232.445 450.088 234.124 449.391 235.877 449.389H386.602C388.354 449.391 390.034 450.088 391.273 451.327C392.511 452.566 393.208 454.246 393.21 455.998V561.377C393.208 563.129 392.511 564.809 391.273 566.048C390.034 567.287 388.354 567.984 386.602 567.986Z" fill="#A2A2A2"/>
<path d="M140.287 293.286C141.297 291.993 142.012 290.494 142.38 288.894C142.749 287.295 142.762 285.634 142.42 284.029C142.077 282.424 141.386 280.914 140.397 279.604C139.407 278.295 138.142 277.219 136.692 276.451L135.742 175.638L116.9 184.285L121.044 281.786C119.916 284.308 119.752 287.157 120.584 289.792C121.416 292.427 123.185 294.665 125.557 296.083C127.929 297.5 130.739 297.999 133.454 297.483C136.168 296.968 138.6 295.474 140.287 293.286Z" fill="#9E616A"/>
<path d="M139.779 150.114C139.779 150.114 121.45 141.223 118.915 157.998C116.38 174.773 105.954 218.431 105.954 218.431L137.593 216.194L139.779 150.114Z" fill="#9E616A"/>
<path d="M140.287 293.286C141.297 291.993 142.012 290.494 142.38 288.894C142.749 287.295 142.762 285.634 142.42 284.029C142.077 282.424 141.386 280.914 140.397 279.604C139.407 278.295 138.142 277.219 136.692 276.451L135.742 175.638L116.9 184.285L121.044 281.786C119.916 284.308 119.752 287.157 120.584 289.792C121.416 292.427 123.185 294.665 125.557 296.083C127.929 297.5 130.739 297.999 133.454 297.483C136.168 296.968 138.6 295.474 140.287 293.286Z" fill="#9E616A"/>
<path d="M139.779 150.114C139.779 150.114 121.45 141.223 118.915 157.998C116.38 174.773 105.954 218.431 105.954 218.431L137.593 216.194L139.779 150.114Z" fill="#75739F"/>
<path d="M86.7078 538.459C85.9678 538.493 85.2351 538.299 84.6091 537.903C83.9832 537.506 83.4942 536.927 83.2084 536.244C82.9226 535.56 82.8538 534.805 83.0113 534.081C83.1689 533.357 83.5452 532.699 84.0892 532.197C84.1803 531.834 84.2457 531.574 84.3368 531.212C84.3042 531.133 84.2714 531.055 84.2384 530.976C83.4928 529.215 82.2435 527.713 80.6473 526.66C79.0512 525.607 77.1794 525.049 75.267 525.056C73.3547 525.063 71.4871 525.635 69.8988 526.7C68.3105 527.765 67.0724 529.276 66.3399 531.042C63.4125 538.093 59.6854 545.156 58.7677 552.61C58.3636 555.905 58.5341 559.246 59.2716 562.483C52.396 547.484 48.8257 531.183 48.8027 514.684C48.8013 510.543 49.0313 506.406 49.4917 502.292C49.8722 498.919 50.4002 495.569 51.0755 492.244C54.7607 474.203 62.6729 457.293 74.1625 442.903C79.7234 439.869 84.2206 435.203 87.048 429.534C88.0724 427.496 88.7963 425.321 89.1974 423.076C88.5701 423.158 87.9325 423.209 87.3052 423.251C87.1098 423.261 86.9041 423.271 86.7087 423.281L86.635 423.285C85.9456 423.316 85.2619 423.147 84.6663 422.798C84.0707 422.449 83.5885 421.936 83.2778 421.32C82.9672 420.704 82.8413 420.011 82.9153 419.325C82.9893 418.638 83.26 417.988 83.6949 417.452C83.9657 417.119 84.2368 416.786 84.5079 416.453C84.9193 415.939 85.341 415.435 85.7523 414.921C85.7998 414.872 85.8444 414.82 85.886 414.766C86.3591 414.18 86.8321 413.604 87.3052 413.018C86.4417 411.678 85.2803 410.555 83.9115 409.738C79.1707 406.961 72.6302 408.884 69.2057 413.172C65.7709 417.461 65.1231 423.477 66.3159 428.835C67.489 433.394 69.4295 437.72 72.0543 441.628C71.7972 441.957 71.5298 442.276 71.2727 442.605C66.573 448.648 62.4769 455.137 59.043 461.979C59.8781 454.314 58.8814 446.56 56.135 439.355C53.3515 432.64 48.1343 426.985 43.54 421.18C38.0214 414.207 26.7051 417.25 25.7329 426.089C25.7234 426.175 25.7143 426.26 25.7053 426.346C26.3877 426.731 27.0557 427.14 27.7093 427.572C28.5304 428.12 29.1666 428.904 29.5346 429.821C29.9026 430.737 29.9852 431.743 29.7716 432.707C29.558 433.671 29.0582 434.548 28.3376 435.223C27.617 435.899 26.7092 436.34 25.7333 436.491L25.6333 436.506C25.8764 438.966 26.3062 441.403 26.9188 443.798C28.694 450.482 31.8309 456.727 36.1328 462.142C40.4348 467.557 45.8091 472.025 51.9187 475.266C52.3198 475.472 52.7106 475.677 53.1117 475.873C49.6617 485.65 47.4976 495.834 46.674 506.169C46.2077 512.266 46.2352 518.391 46.7563 524.484L46.7254 524.268C45.409 517.493 41.7947 511.379 36.493 506.96C28.6186 500.492 17.4936 498.11 8.99854 492.911C8.09572 492.331 7.04597 492.022 5.97309 492.019C4.90021 492.016 3.84894 492.32 2.9433 492.896C2.03767 493.471 1.31543 494.293 0.861761 495.265C0.408091 496.238 0.241923 497.319 0.382849 498.383C0.394242 498.459 0.405811 498.534 0.417578 498.61C1.68394 499.126 2.91693 499.72 4.10941 500.389C4.79182 500.774 5.45982 501.183 6.11341 501.615C6.93449 502.164 7.57073 502.947 7.93873 503.864C8.30672 504.78 8.38932 505.786 8.17573 506.75C7.96213 507.714 7.4623 508.591 6.74171 509.267C6.02111 509.942 5.11338 510.384 4.13743 510.534L4.03742 510.549C3.96542 510.56 3.90373 510.57 3.83185 510.58C5.9956 515.747 9.03248 520.502 12.8095 524.638C17.4754 529.645 23.1148 533.646 29.3818 536.396C35.6489 539.145 42.4115 540.586 49.2552 540.63H49.2655C51.1233 548.702 53.8149 556.56 57.2972 564.077H85.9889C86.0918 563.758 86.1843 563.429 86.2769 563.11C83.6211 563.277 80.9549 563.118 78.3377 562.637C80.4665 560.025 82.5952 557.392 84.7239 554.78C84.7714 554.731 84.8161 554.68 84.8576 554.626C85.9374 553.289 87.0275 551.962 88.1073 550.625L88.1079 550.624C88.1654 546.526 87.6952 542.438 86.7087 538.46L86.7078 538.459Z" fill="#A2A2A2"/>
<path d="M509.708 538.459C508.968 538.493 508.235 538.299 507.609 537.903C506.983 537.506 506.494 536.927 506.208 536.244C505.923 535.56 505.854 534.805 506.011 534.081C506.169 533.357 506.545 532.699 507.089 532.197C507.18 531.834 507.246 531.574 507.337 531.212C507.304 531.133 507.271 531.055 507.238 530.976C506.493 529.215 505.243 527.713 503.647 526.66C502.051 525.607 500.179 525.049 498.267 525.056C496.355 525.063 494.487 525.635 492.899 526.7C491.31 527.765 490.072 529.276 489.34 531.042C486.412 538.093 482.685 545.156 481.768 552.61C481.364 555.905 481.534 559.246 482.272 562.483C475.396 547.484 471.826 531.183 471.803 514.684C471.801 510.543 472.031 506.406 472.492 502.292C472.872 498.919 473.4 495.569 474.075 492.244C477.761 474.203 485.673 457.293 497.162 442.903C502.723 439.869 507.221 435.203 510.048 429.534C511.072 427.496 511.796 425.321 512.197 423.076C511.57 423.158 510.932 423.209 510.305 423.251C510.11 423.261 509.904 423.271 509.709 423.281L509.635 423.285C508.946 423.316 508.262 423.147 507.666 422.798C507.071 422.449 506.588 421.936 506.278 421.32C505.967 420.704 505.841 420.011 505.915 419.325C505.989 418.638 506.26 417.988 506.695 417.452C506.966 417.119 507.237 416.786 507.508 416.453C507.919 415.939 508.341 415.435 508.752 414.921C508.8 414.872 508.844 414.82 508.886 414.766C509.359 414.18 509.832 413.604 510.305 413.018C509.442 411.678 508.28 410.555 506.911 409.738C502.171 406.961 495.63 408.884 492.206 413.172C488.771 417.461 488.123 423.477 489.316 428.835C490.489 433.394 492.429 437.72 495.054 441.628C494.797 441.957 494.53 442.276 494.273 442.605C489.573 448.648 485.477 455.137 482.043 461.979C482.878 454.314 481.881 446.56 479.135 439.355C476.351 432.64 471.134 426.985 466.54 421.18C461.021 414.207 449.705 417.25 448.733 426.089C448.723 426.175 448.714 426.26 448.705 426.346C449.388 426.731 450.056 427.14 450.709 427.572C451.53 428.12 452.166 428.904 452.534 429.821C452.902 430.737 452.985 431.743 452.771 432.707C452.558 433.671 452.058 434.548 451.337 435.223C450.617 435.899 449.709 436.34 448.733 436.491L448.633 436.506C448.876 438.966 449.306 441.403 449.919 443.798C451.694 450.482 454.831 456.727 459.133 462.142C463.435 467.557 468.809 472.025 474.919 475.266C475.32 475.472 475.711 475.677 476.112 475.873C472.662 485.65 470.498 495.834 469.674 506.169C469.208 512.266 469.235 518.391 469.756 524.484L469.725 524.268C468.409 517.493 464.795 511.379 459.493 506.96C451.619 500.492 440.494 498.11 431.999 492.911C431.096 492.331 430.046 492.022 428.973 492.019C427.9 492.016 426.849 492.32 425.943 492.896C425.038 493.471 424.315 494.293 423.862 495.265C423.408 496.238 423.242 497.319 423.383 498.383C423.394 498.459 423.406 498.534 423.418 498.61C424.684 499.126 425.917 499.72 427.109 500.389C427.792 500.774 428.46 501.183 429.113 501.615C429.934 502.164 430.571 502.947 430.939 503.864C431.307 504.78 431.389 505.786 431.176 506.75C430.962 507.714 430.462 508.591 429.742 509.267C429.021 509.942 428.113 510.384 427.137 510.534L427.037 510.549C426.965 510.56 426.904 510.57 426.832 510.58C428.996 515.747 432.032 520.502 435.81 524.638C440.475 529.645 446.115 533.646 452.382 536.396C458.649 539.145 465.412 540.586 472.255 540.63H472.266C474.123 548.702 476.815 556.56 480.297 564.077H508.989C509.092 563.758 509.184 563.429 509.277 563.11C506.621 563.277 503.955 563.118 501.338 562.637C503.466 560.025 505.595 557.392 507.724 554.78C507.771 554.731 507.816 554.68 507.858 554.626C508.937 553.289 510.027 551.962 511.107 550.625L511.108 550.624C511.165 546.526 510.695 542.438 509.709 538.46L509.708 538.459Z" fill="#F2F2F2"/>
<path d="M399.22 563.889C399.137 563.889 399.055 563.887 398.972 563.885C396.873 563.765 394.9 562.84 393.465 561.302C392.031 559.765 391.244 557.733 391.27 555.63C391.27 542.835 382.13 535.372 373.073 533.651C364.015 531.931 352.775 535.522 348.083 547.427L343.818 558.134C340.13 561.813 335.134 563.879 329.925 563.879C324.716 563.879 319.719 561.813 316.032 558.134L315.779 557.882L315.936 557.561L391.27 403.427V399.65C391.166 398.485 391.166 397.314 391.272 396.15L391.27 7.94662C391.27 6.88252 391.484 5.82926 391.898 4.8493C392.313 3.86935 392.92 2.98266 393.684 2.24187C394.448 1.50107 395.353 0.921247 396.345 0.536787C397.337 0.152328 398.397 -0.028944 399.46 0.00375196C401.56 0.123758 403.532 1.04884 404.967 2.58645C406.402 4.12407 407.188 6.15575 407.163 8.25863V396.195C407.267 397.359 407.267 398.53 407.161 399.695L407.163 403.426L482.654 557.882L482.401 558.134C478.714 561.813 473.717 563.879 468.508 563.879C463.299 563.879 458.302 561.813 454.615 558.134L454.503 557.964L450.35 547.427C445.658 535.523 434.419 531.934 425.36 533.651C416.303 535.371 407.163 542.835 407.163 555.63V555.943C407.163 558.05 406.326 560.07 404.837 561.56C403.347 563.051 401.327 563.888 399.22 563.889Z" fill="#E6E6E6"/>
<path d="M537.118 280.986H261.315C258.109 280.982 255.035 279.707 252.768 277.44C250.501 275.173 249.226 272.1 249.222 268.894V76.0655C249.226 72.8595 250.501 69.7857 252.768 67.5187C255.035 65.2517 258.109 63.9765 261.315 63.9729H537.118C540.324 63.9766 543.398 65.2518 545.665 67.5189C547.932 69.7859 549.207 72.8596 549.21 76.0656V268.894C549.207 272.099 547.931 275.173 545.664 277.44C543.398 279.707 540.324 280.982 537.118 280.986Z" fill="#A2A2A2"/>
<path d="M537.118 282.486H261.315C257.711 282.482 254.256 281.049 251.708 278.5C249.16 275.952 247.726 272.498 247.722 268.894V76.0654C247.726 72.4616 249.16 69.0067 251.708 66.4586C254.256 63.9104 257.711 62.4771 261.315 62.4731H537.118C540.722 62.4772 544.177 63.9106 546.725 66.4587C549.273 69.0069 550.706 72.4617 550.71 76.0654V268.894C550.706 272.498 549.273 275.952 546.725 278.5C544.176 281.048 540.722 282.482 537.118 282.486ZM261.315 65.4731C258.507 65.4762 255.814 66.5931 253.828 68.5789C251.842 70.5646 250.725 73.257 250.722 76.0654V268.894C250.725 271.702 251.843 274.394 253.828 276.38C255.814 278.366 258.507 279.483 261.315 279.486H537.118C539.926 279.483 542.619 278.366 544.604 276.38C546.59 274.394 547.707 271.702 547.71 268.894V76.0654C547.707 73.2571 546.59 70.5647 544.605 68.5789C542.619 66.5932 539.926 65.4762 537.118 65.4731H261.315Z" fill="#F2F2F2"/>
<path d="M439.995 76.0292H358.438C353.267 76.0234 348.31 73.9667 344.654 70.3105C340.997 66.6543 338.941 61.6971 338.935 56.5264V56.1718H459.498V56.5264C459.492 61.6971 457.435 66.6543 453.779 70.3105C450.123 73.9667 445.166 76.0234 439.995 76.0292Z" fill="#E6E6E6"/>
<path d="M440.35 293.042H358.792C353.622 293.036 348.665 290.98 345.008 287.323C341.352 283.667 339.296 278.71 339.29 273.539V273.185H459.852V273.539C459.846 278.71 457.79 283.667 454.134 287.323C450.477 290.98 445.52 293.036 440.35 293.042Z" fill="#E6E6E6"/>
<path d="M549.67 564.882C549.671 565.039 549.64 565.194 549.58 565.338C549.521 565.483 549.433 565.614 549.323 565.725C549.212 565.835 549.081 565.923 548.936 565.983C548.791 566.042 548.636 566.073 548.48 566.072H1.18997C0.874364 566.072 0.57171 565.947 0.348541 565.724C0.125373 565.501 -3.05176e-05 565.198 -3.05176e-05 564.882C-3.05176e-05 564.567 0.125373 564.264 0.348541 564.041C0.57171 563.818 0.874364 563.692 1.18997 563.692H548.48C548.636 563.692 548.791 563.722 548.936 563.782C549.081 563.842 549.212 563.929 549.322 564.04C549.433 564.15 549.521 564.282 549.58 564.426C549.64 564.571 549.671 564.726 549.67 564.882Z" fill="#CCCCCC"/>
<path d="M184.306 537.181H198.722L205.58 481.575L184.303 481.576L184.306 537.181Z" fill="#9E616A"/>
<path d="M179.424 530.07L202.213 528.709V538.473L223.879 553.437C224.949 554.176 225.755 555.237 226.179 556.467C226.603 557.696 226.623 559.029 226.236 560.27C225.849 561.512 225.076 562.597 224.028 563.368C222.98 564.139 221.714 564.554 220.414 564.554H193.282L188.606 554.896L186.78 564.554H176.55L179.424 530.07Z" fill="#38323A"/>
<path d="M135.277 227.892L133.865 234.622L132.664 259.447L180.908 252.915L184.613 224.169L179.492 215.755L135.277 227.892Z" fill="#9E616A"/>
<path d="M111.347 537.181H125.763L132.621 481.575L111.344 481.576L111.347 537.181Z" fill="#9E616A"/>
<path d="M103.636 399.469L103.635 399.32L109.032 374.128L112.359 361.587L103.11 288.158C100.932 234.809 131.882 209.165 132.126 208.912L132.797 208.215L182.433 207C209.139 223.001 206.116 310.519 211.006 370.039C211.355 374.283 215.737 380.548 214.66 384.585C206.114 416.612 208.617 451.246 202.107 452.27L182.146 451.992L171.836 405.204L181.353 369.517C177.132 368.74 174.215 348.106 174.215 348.106C172.376 345.922 166.027 327.35 166.027 327.35L157.562 275.94L143.961 364.364L147.236 385.108L144.526 392.241L132.917 451.127L132.794 452.076L110.909 449.891L103.636 399.469Z" fill="#38323A"/>
<path d="M106.874 530.36L129.663 529V538.764L151.329 553.727C152.399 554.466 153.205 555.528 153.629 556.757C154.053 557.987 154.073 559.319 153.686 560.561C153.299 561.803 152.525 562.888 151.478 563.659C150.43 564.429 149.164 564.845 147.863 564.845H120.732L116.055 555.187L114.23 564.845H104L106.874 530.36Z" fill="#38323A"/>
<path d="M175.078 130.806L187.246 144.326L201.862 171.874L194.682 205.842L197.821 221.782L202.456 239.304C184.597 249.183 163.382 235.539 143.893 229.479L124.717 237.952L125.731 214.63L126.251 155.869C126.271 153.613 126.754 151.384 127.672 149.322C128.589 147.26 129.92 145.408 131.583 143.882C133.246 142.356 135.204 141.188 137.337 140.45C139.47 139.712 141.732 139.421 143.983 139.594L156.827 130.13L175.078 130.806Z" fill="#75739F"/>
<path d="M171.67 123.729C185.84 123.729 197.327 112.242 197.327 98.0719C197.327 83.9018 185.84 72.4147 171.67 72.4147C157.5 72.4147 146.013 83.9018 146.013 98.0719C146.013 112.242 157.5 123.729 171.67 123.729Z" fill="#9E616A"/>
<path d="M201.835 88.8125C201.383 91.3265 190.582 92.5398 190.907 88.0671C188.805 92.2781 185.665 98.3891 189.665 105.389C188.098 107.096 187.111 109.254 186.845 111.555C186.579 113.857 187.048 116.183 188.184 118.202C189.322 120.052 190.275 122.01 191.031 124.047C191.183 124.541 191.292 125.048 191.356 125.561C191.42 126.077 191.345 126.601 191.137 127.078C190.929 127.555 190.597 127.967 190.175 128.271C189.754 128.575 189.258 128.76 188.74 128.806C188.222 128.853 187.701 128.759 187.232 128.535C176.352 123.206 157.378 124.109 145.474 127.361C145.554 125.045 145.522 122.735 145.379 120.43C144.945 123.312 143.782 126.036 142.001 128.344C139.963 128.947 137.964 129.573 136.029 130.192C135.734 130.288 135.419 130.301 135.116 130.232C134.814 130.163 134.536 130.012 134.313 129.798C134.089 129.583 133.928 129.311 133.846 129.012C133.764 128.713 133.765 128.397 133.849 128.098C134.226 126.73 134.296 125.294 134.055 123.895C133.563 120.993 132.104 118.368 131.073 115.616C130.042 112.864 129.455 109.7 130.716 107.044C132.675 102.92 138.194 101.659 140.629 97.7967C143.365 93.4589 141.24 87.8046 141.668 82.6895C142.271 75.4571 148.194 69.5808 154.872 66.7417C166.434 61.8249 180.899 65.8067 189.567 74.8949C190.783 74.0739 192.202 73.606 193.668 73.543C195.134 73.48 196.588 73.8244 197.87 74.538C200.431 75.9099 202.271 76.6237 203.421 79.2962C204.428 81.6436 202.295 86.2907 201.835 88.8125Z" fill="#38323A"/>
<path d="M190.841 390.533L130.477 330.168C129.776 329.466 129.382 328.514 129.382 327.522C129.382 326.529 129.776 325.577 130.477 324.875L172.68 282.671C173.383 281.97 174.335 281.576 175.327 281.576C176.319 281.576 177.271 281.97 177.974 282.671L238.338 343.036C239.039 343.738 239.433 344.69 239.433 345.682C239.433 346.675 239.039 347.626 238.338 348.329L196.134 390.533C195.432 391.234 194.48 391.627 193.488 391.627C192.495 391.627 191.544 391.234 190.841 390.533Z" fill="#A2A2A2"/>
<path d="M193.488 392.626C192.865 392.628 192.248 392.507 191.672 392.269C191.096 392.031 190.574 391.681 190.134 391.24L129.769 330.875C128.881 329.986 128.382 328.779 128.382 327.522C128.382 326.264 128.881 325.058 129.769 324.168L171.974 281.964C172.864 281.076 174.07 280.577 175.327 280.577C176.585 280.577 177.791 281.076 178.681 281.964L239.045 342.329C239.934 343.218 240.433 344.425 240.433 345.682C240.433 346.94 239.934 348.146 239.045 349.036L196.841 391.24C196.402 391.681 195.879 392.031 195.303 392.269C194.728 392.507 194.111 392.628 193.488 392.626ZM175.327 282.577C174.967 282.575 174.61 282.645 174.277 282.783C173.944 282.921 173.642 283.123 173.388 283.378L131.184 325.582C130.67 326.097 130.382 326.795 130.382 327.522C130.382 328.249 130.67 328.946 131.184 329.461L191.548 389.826C192.071 390.323 192.766 390.601 193.488 390.601C194.21 390.601 194.904 390.323 195.427 389.826L237.631 347.622C238.145 347.107 238.433 346.409 238.433 345.682C238.433 344.955 238.145 344.257 237.631 343.743L177.266 283.378C177.012 283.123 176.71 282.921 176.377 282.783C176.044 282.645 175.687 282.575 175.327 282.577Z" fill="#E6E6E6"/>
<path d="M168.097 288.286C167.086 286.993 166.372 285.494 166.003 283.894C165.635 282.295 165.621 280.634 165.964 279.029C166.307 277.424 166.997 275.914 167.987 274.604C168.977 273.295 170.241 272.219 171.692 271.451L172.642 170.638L191.484 179.285L187.339 276.786C188.468 279.308 188.631 282.157 187.8 284.792C186.968 287.427 185.198 289.665 182.826 291.083C180.454 292.5 177.645 292.999 174.93 292.483C172.215 291.968 169.784 290.474 168.097 288.286Z" fill="#9E616A"/>
<path d="M168.604 145.114C168.604 145.114 186.934 136.223 189.469 152.998C192.003 169.773 202.43 213.431 202.43 213.431L170.791 211.194L168.604 145.114Z" fill="#9E616A"/>
<path d="M168.097 288.286C167.086 286.993 166.372 285.494 166.003 283.894C165.635 282.295 165.621 280.634 165.964 279.029C166.307 277.424 166.997 275.914 167.987 274.604C168.977 273.295 170.241 272.219 171.692 271.451L172.642 170.638L191.484 179.285L187.339 276.786C188.468 279.308 188.631 282.157 187.8 284.792C186.968 287.427 185.198 289.665 182.826 291.083C180.454 292.5 177.645 292.999 174.93 292.483C172.215 291.968 169.784 290.474 168.097 288.286Z" fill="#9E616A"/>
<path d="M168.604 145.114C168.604 145.114 186.934 136.223 189.469 152.998C192.003 169.773 202.43 213.431 202.43 213.431L170.791 211.194L168.604 145.114Z" fill="#75739F"/>
</g>
<defs>
<clipPath id="clip0_1_2">
<rect width="550.71" height="567.986" fill="white"/>
</clipPath>
</defs>
</svg>
